<svg xmlns="http://www.w3.org/2000/svg" xmlns:svg="http://www.w3.org/2000/svg" id="svg2" width="233" height="91" version="1.1"><metadata id="metadata7"/><g id="layer1" transform="translate(-109.57142,-485.2193)"><path style="fill:#cb3837;fill-opacity:1" id="path4951" d="m 174.4429,576.2193 0,-13.01931 -64.87148,0 1.9e-4,-77.98069 233.35644,0 -1.9e-4,77.98069 -116.67804,0 0,13.01931 z"/><path style="fill:#fff;fill-opacity:1" id="path4949" d="m 213.63597,563.19999 0,-13.1094 25.67822,0 0,-51.76189 -51.71684,0 0,64.87129 z"/><path style="fill:#cb3837;fill-opacity:1" id="path4947" d="m 213.63597,511.34801 12.61385,0 0,25.67822 -12.61385,0 z"/><path style="fill:#fff;fill-opacity:1" id="path4945" d="m 148.31419,550.09059 0,-38.74258 13.06435,0 0,38.74258 13.06436,0 0,-51.76189 -51.71226,0 0,51.76189 z"/><path style="fill:#fff;fill-opacity:1" id="path2998" d="m 278.05676,550.09059 0,-38.74258 13.06435,0 0,38.74258 13.06436,0 0,-38.74258 13.06435,0 0,38.74258 13.06437,0 0,-51.76189 -77.93404,0 0,51.76189 z"/></g></svg>